<?xml version="1.0" encoding="utf-8"?>
<!-- Generated by IcoMoon.io -->
<!DOCTYPE svg PUBLIC "-//W3C//DTD SVG 1.1//EN" "http://www.w3.org/Graphics/SVG/1.1/DTD/svg11.dtd">
<svg version="1.1" xmlns="http://www.w3.org/2000/svg" xmlns:xlink="http://www.w3.org/1999/xlink" width="27" height="42" viewBox="0 0 27 42" >
<path fill="red" d="M27 16.5v3q0 5.18-3.457 9.012t-8.543 4.395v3.094h6q0.609 0 1.055 0.445t0.445 1.055-0.445 1.055-1.055 0.445h-15q-0.609 0-1.055-0.445t-0.445-1.055 0.445-1.055 1.055-0.445h6v-3.094q-5.086-0.562-8.543-4.395t-3.457-9.012v-3q0-0.609 0.445-1.055t1.055-0.445 1.055 0.445 0.445 1.055v3q0 4.336 3.082 7.418t7.418 3.082 7.418-3.082 3.082-7.418v-3q0-0.609 0.445-1.055t1.055-0.445 1.055 0.445 0.445 1.055zM21 7.5v12q0 3.094-2.203 5.297t-5.297 2.203-5.297-2.203-2.203-5.297v-12q0-3.094 2.203-5.297t5.297-2.203 5.297 2.203 2.203 5.297z"></path>
</svg>
